<?xml version="1.0" encoding="UTF-8"?>
<svg xmlns="http://www.w3.org/2000/svg" xmlns:xlink="http://www.w3.org/1999/xlink" width="37px" height="37px" viewBox="0 0 53 53" fill="#cccccc" stroke="#cccccc" version="1.1">
<g id="surface1">
<path d="M 259 2.994687 C 117.602187 2.994687 2.994687 117.602187 2.994687 259 C 2.994687 400.397812 117.602187 515.005312 259 515.005312 C 400.397812 515.005312 515.005312 400.397812 515.005312 259 C 515.005312 117.602187 400.397812 2.994687 259 2.994687 Z M 387.407344 198.903906 L 387.407344 233.585625 C 371.098437 233.585625 355.194219 230.388594 340.180312 224.115938 C 330.589219 219.988125 321.605156 214.808125 313.39 208.495 L 313.592344 315.211094 C 313.511406 339.209062 304.00125 361.790625 286.802031 378.7875 C 272.799844 392.587344 255.115 401.409531 235.811406 404.282812 C 231.319375 405.01125 226.705937 405.294531 222.011562 405.294531 C 201.412969 405.294531 181.907031 398.617188 165.881406 386.314687 C 162.886719 384.007969 160.013437 381.498906 157.302031 378.7875 C 138.686406 360.414687 129.014375 335.405 130.714062 309.100312 C 131.887656 289.10875 139.900469 270.0075 153.295625 255.115 C 170.980469 235.285312 195.706875 224.318281 222.0925 224.318281 C 226.705937 224.318281 231.319375 224.601562 235.892344 225.289531 L 235.892344 273.811562 C 231.602656 272.395156 226.989219 271.585781 222.294844 271.585781 C 198.215937 271.585781 178.588594 291.294062 178.993281 315.413437 C 179.195625 330.912969 187.694063 344.389062 200.117969 351.794844 C 205.985937 355.315625 212.70375 357.500937 219.907187 357.905625 C 225.491875 358.188906 230.914687 357.42 235.892344 355.80125 C 253.091562 350.095156 265.596406 333.907656 265.596406 314.806406 L 265.717812 243.419531 L 265.717812 112.786406 L 313.39 112.786406 C 313.39 117.480781 313.916094 122.094219 314.806406 126.58625 C 318.408125 144.71625 328.60625 160.418125 342.810781 171.101875 C 355.194219 180.409687 370.612812 185.994375 387.285937 185.994375 C 387.285937 185.994375 387.407344 185.994375 387.407344 185.994375 Z M 387.407344 198.903906 " transform="matrix(0.0965251,0,0,0.0965251,0,0)"/>
</g>
</svg>
